<?xml version="1.0" encoding="UTF-8" standalone="no"?>
<svg width="794px" height="482px" viewBox="0 0 794 482" version="1.1" xmlns="http://www.w3.org/2000/svg" xmlns:xlink="http://www.w3.org/1999/xlink" xmlns:sketch="http://www.bohemiancoding.com/sketch/ns">
    <!-- Generator: Sketch 3.4.4 (17249) - http://www.bohemiancoding.com/sketch -->
    <title>scheme1</title>
    <desc>Created with Sketch.</desc>
    <defs>
        <path id="path-1" d="M4,52 L2.99094783,52 C1.33909296,52 0,50.6526814 0,48.9999809 L0,25.0000191 L0,25.0000191 C0,23.3431543 1.3430418,22 2.99651262,22 L4,22"></path>
        <path id="path-2" d="M261,52 L259.990948,52 C258.339093,52 257,50.6526814 257,48.9999809 L257,25.0000191 L257,25.0000191 C257,23.3431543 258.343042,22 259.996513,22 L261,22"></path>
        <rect id="path-3" x="0" y="0" width="100" height="230" rx="3"></rect>
    </defs>
    <g id="Page-1" stroke="none" stroke-width="1" fill="none" fill-rule="evenodd" sketch:type="MSPage">
        <g id="scheme1" sketch:type="MSArtboardGroup">
            <g sketch:type="MSLayerGroup">
                <g id="src" transform="translate(39.000000, 95.000000)" font-size="13" sketch:type="MSTextLayer">
                    <g id="tree" transform="translate(1.000000, 32.000000)" font-family="PT Mono" font-weight="normal">
                        <text id="└──popup/" fill="#000000">
                            <tspan x="64" y="207">└──popup/</tspan>
                        </text>
                        <text id="├──langswitch/">
                            <tspan x="64" y="192" fill="#000000">├──</tspan>
                            <tspan x="87.4" y="192" fill="#FF6666">langswitch/</tspan>
                        </text>
                        <text id="├──image/" fill="#000000">
                            <tspan x="64" y="177">├──image/</tspan>
                        </text>
                        <text id="├──icon/" fill="#000000">
                            <tspan x="64" y="162">├──icon/</tspan>
                        </text>
                        <text id="├──input/">
                            <tspan x="64" y="147" fill="#000000">├──</tspan>
                            <tspan x="87.4" y="147" fill="#FF6666">input/</tspan>
                        </text>
                        <text id="├──button/-copy">
                            <tspan x="64" y="132" fill="#000000">├──</tspan>
                            <tspan x="87.4" y="132" fill="#FF6666">button/</tspan>
                        </text>
                        <text id="└──lib/" fill="#000000">
                            <tspan x="32" y="117">└──lib/</tspan>
                        </text>
                        <text id="└──link/" fill="#000000">
                            <tspan x="64" y="102">└──link/</tspan>
                        </text>
                        <text id="├──icon/" fill="#000000">
                            <tspan x="64" y="87">├──icon/</tspan>
                        </text>
                        <text id="├──logo/">
                            <tspan x="64" y="72" fill="#000000">├──</tspan>
                            <tspan x="87.4" y="72" fill="#FF6666">logo/</tspan>
                        </text>
                        <text id="├──input/">
                            <tspan x="64" y="57" fill="#000000">├──</tspan>
                            <tspan x="87.4" y="57" fill="#FF6666">input/</tspan>
                        </text>
                        <text id="├──button/">
                            <tspan x="64" y="42" fill="#000000">├──</tspan>
                            <tspan x="87.4" y="42" fill="#FF6666">button/</tspan>
                        </text>
                        <text id="└──blocks/" fill="#000000">
                            <tspan x="32" y="27">└──blocks/</tspan>
                        </text>
                        <text id="project/" fill="#000000">
                            <tspan x="0" y="12">project/</tspan>
                        </text>
                    </g>
                    <text id="Исходные-файлы" font-family="Open Sans" font-weight="526" fill="#333333">
                        <tspan x="0" y="14">Исходные файлы</tspan>
                    </text>
                </g>
                <g id="src_arrows" transform="translate(231.000000, 162.000000)" fill="#FF6666" sketch:type="MSShapeGroup">
                    <path d="M0,2 L31,2 L31,3 L0,3 L0,2 Z M36,2.5 L31,5 L31,-4.7439589e-16 L36,2.5 Z" id="arrow"></path>
                    <path d="M0,17 L31,17 L31,18 L0,18 L0,17 Z M36,17.5 L31,20 L31,15 L36,17.5 Z" id="arrow-copy"></path>
                    <path d="M0,32 L31,32 L31,33 L0,33 L0,32 Z M36,32.5 L31,35 L31,30 L36,32.5 Z" id="arrow-copy-3"></path>
                    <path d="M0,92 L31,92 L31,93 L0,93 L0,92 Z M36,92.5 L31,95 L31,90 L36,92.5 Z" id="arrow-copy-4"></path>
                    <path d="M0,107 L31,107 L31,108 L0,108 L0,107 Z M36,107.5 L31,110 L31,105 L36,107.5 Z" id="arrow-copy-5"></path>
                    <path d="M0,152 L31,152 L31,153 L0,153 L0,152 Z M36,152.5 L31,155 L31,150 L36,152.5 Z" id="arrow-copy-6"></path>
                </g>
                <g id="declaration" transform="translate(207.000000, 21.000000)">
                    <text id="Декларация" sketch:type="MSTextLayer" font-family="Open Sans" font-size="13" font-weight="526" sketch:alignment="middle" fill="#333333">
                        <tspan x="91.411377" y="14">Декларация</tspan>
                    </text>
                    <g id="Rectangle-22">
                        <use stroke-opacity="0.8" stroke="#000000" stroke-width="1" sketch:type="MSShapeGroup" xlink:href="#path-1"></use>
                        <use stroke="none" xlink:href="#path-1"></use>
                    </g>
                    <g id="Rectangle-22-Copy">
                        <use stroke-opacity="0.8" stroke="#000000" stroke-width="1" sketch:type="MSShapeGroup" transform="translate(259.000000, 37.000000) scale(-1, 1) translate(-259.000000, -37.000000) " xlink:href="#path-2"></use>
                        <use stroke="none" xlink:href="#path-2"></use>
                    </g>
                    <text id="button,-logo,-input," sketch:type="MSTextLayer" font-family="PT Mono" font-size="13" font-weight="normal">
                        <tspan x="10" y="42" fill="#FF6666">button</tspan>
                        <tspan x="56.8" y="42" fill="#333333">,</tspan>
                        <tspan x="64.6" y="42" fill="#FF3333"> </tspan>
                        <tspan x="72.4" y="42" fill="#FF6666">logo</tspan>
                        <tspan x="103.6" y="42" fill="#444444">,</tspan>
                        <tspan x="111.4" y="42" fill="#FF3333"> </tspan>
                        <tspan x="119.2" y="42" fill="#FF6666">input</tspan>
                        <tspan x="158.2" y="42" fill="#444444">,</tspan>
                        <tspan x="166" y="42" fill="#FF3333"> </tspan>
                        <tspan x="173.8" y="42" fill="#FF6666">langswitch</tspan>
                    </text>
                </g>
                <g id="declaration_arrows" transform="translate(335.000000, 83.000000)" fill="#FF6666" sketch:type="MSShapeGroup">
                    <path d="M-15.5,17.5 L15.5,17.5 L15.5,18.5 L-15.5,18.5 L-15.5,17.5 Z M20.5,18 L15.5,20.5 L15.5,15.5 L20.5,18 Z" id="arrow" transform="translate(2.500000, 18.000000) rotate(-270.000000) translate(-2.500000, -18.000000) "></path>
                </g>
                <g id="sborka" transform="translate(288.000000, 130.000000)">
                    <g id="Rectangle-22">
                        <use stroke-opacity="0.2" stroke="#000000" fill-opacity="0.05" fill="#000000" fill-rule="evenodd" sketch:type="MSShapeGroup" xlink:href="#path-3"></use>
                        <use stroke="#FFFFFF" fill="none" xlink:href="#path-3"></use>
                    </g>
                    <text id="Сборка" sketch:type="MSTextLayer" font-family="Open Sans" font-size="13" font-weight="526" sketch:alignment="middle" fill="#333333">
                        <tspan x="26.4343262" y="119.541126">Сборка</tspan>
                    </text>
                </g>
                <g id="bundle_css" transform="translate(465.000000, 162.000000)">
                    <rect id="Rectangle-25" stroke-opacity="0.1" stroke="#000000" fill="#F6F5F3" sketch:type="MSShapeGroup" x="0" y="0" width="307" height="181"></rect>
                    <text id="@import-“lib/button/" sketch:type="MSTextLayer" font-family="PT Mono" font-size="13" font-weight="normal" line-spacing="15">
                        <tspan x="16" y="25" fill="#A71D5D">@import</tspan>
                        <tspan x="70.6" y="25" fill="#333333"> </tspan>
                        <tspan x="78.4" y="25" fill="#183691">“lib/button/button.css”</tspan>
                        <tspan x="257.8" y="25" fill="#333333">;</tspan>
                        <tspan x="16" y="40" fill="#A71D5D">@import</tspan>
                        <tspan x="70.6" y="40" fill="#333333"> </tspan>
                        <tspan x="78.4" y="40" fill="#183691">“blocks/button/button.css”</tspan>
                        <tspan x="281.2" y="40" fill="#333333">;</tspan>
                        <tspan x="16" y="55" fill="#333333"></tspan>
                        <tspan x="16" y="70" fill="#A71D5D">@import</tspan>
                        <tspan x="70.6" y="70" fill="#333333"> </tspan>
                        <tspan x="78.4" y="70" fill="#183691">“lib/input/input.css”</tspan>
                        <tspan x="242.2" y="70" fill="#333333">;</tspan>
                        <tspan x="16" y="85" fill="#A71D5D">@import</tspan>
                        <tspan x="70.6" y="85" fill="#333333"> </tspan>
                        <tspan x="78.4" y="85" fill="#183691">“blocks/input/input.css”</tspan>
                        <tspan x="265.6" y="85" fill="#333333">;</tspan>
                        <tspan x="16" y="100" fill="#333333"></tspan>
                        <tspan x="16" y="115" fill="#A71D5D">@import</tspan>
                        <tspan x="70.6" y="115" fill="#333333"> </tspan>
                        <tspan x="78.4" y="115" fill="#183691">“lib/langswitch/</tspan>
                        <tspan x="16" y="130" fill="#183691">langswitch.css”</tspan>
                        <tspan x="133" y="130" fill="#333333">;</tspan>
                        <tspan x="16" y="145" fill="#333333"></tspan>
                        <tspan x="16" y="160" fill="#A71D5D">@import</tspan>
                        <tspan x="70.6" y="160" fill="#333333"> </tspan>
                        <tspan x="78.4" y="160" fill="#183691">“blocks/logo/logo.css”</tspan>
                        <tspan x="250" y="160" fill="#333333">;</tspan>
                    </text>
                </g>
                <g id="bundle_css_arrow" transform="translate(409.000000, 243.000000)" fill="#FF6666" sketch:type="MSShapeGroup">
                    <path d="M0,2 L31,2 L31,3 L0,3 L0,2 Z M36,2.5 L31,5 L31,-4.7439589e-16 L36,2.5 Z" id="arrow"></path>
                </g>
            </g>
        </g>
    </g>
</svg>